<svg width="265" height="1" viewBox="0 0 265 1" fill="none" xmlns="http://www.w3.org/2000/svg">
<path fill-rule="evenodd" clip-rule="evenodd" d="M1.00379 1H0V0H1.00379V1ZM5.01894 1H3.01136V0H5.01894V1ZM9.03409 1H7.02652V0H9.03409V1ZM13.0492 1H11.0417V0H13.0492V1ZM17.0644 1H15.0568V0H17.0644V1ZM21.0795 1H19.072V0H21.0795V1ZM25.0947 1H23.0871V0H25.0947V1ZM29.1098 1H27.1023V0H29.1098V1ZM33.125 1H31.1174V0H33.125V1ZM37.1402 1H35.1326V0H37.1402V1ZM41.1553 1H39.1477V0H41.1553V1ZM45.1705 1H43.1629V0H45.1705V1ZM49.1856 1H47.178V0H49.1856V1ZM53.2008 1H51.1932V0H53.2008V1ZM57.2159 1H55.2083V0H57.2159V1ZM61.2311 1H59.2235V0H61.2311V1ZM65.2462 1H63.2386V0H65.2462V1ZM69.2614 1H67.2538V0H69.2614V1ZM73.2765 1H71.2689V0H73.2765V1ZM77.2917 1H75.2841V0H77.2917V1ZM81.3068 1H79.2992V0H81.3068V1ZM85.322 1H83.3144V0H85.322V1ZM89.3371 1H87.3296V0H89.3371V1ZM93.3523 1H91.3447V0H93.3523V1ZM97.3674 1H95.3599V0H97.3674V1ZM101.383 1H99.375V0H101.383V1ZM105.398 1H103.39V0H105.398V1ZM109.413 1H107.405V0H109.413V1ZM113.428 1H111.42V0H113.428V1ZM117.443 1H115.436V0H117.443V1ZM121.458 1H119.451V0H121.458V1ZM125.473 1H123.466V0H125.473V1ZM129.489 1H127.481V0H129.489V1ZM133.504 1H131.496V0H133.504V1ZM137.519 1H135.511V0H137.519V1ZM141.534 1H139.526V0H141.534V1ZM145.549 1H143.542V0H145.549V1ZM149.564 1H147.557V0H149.564V1ZM153.579 1H151.572V0H153.579V1ZM157.595 1H155.587V0H157.595V1ZM161.61 1H159.602V0H161.61V1ZM165.625 1H163.617V0H165.625V1ZM169.64 1H167.632V0H169.64V1ZM173.655 1H171.648V0H173.655V1ZM177.67 1H175.663V0H177.67V1ZM181.685 1H179.678V0H181.685V1ZM185.701 1H183.693V0H185.701V1ZM189.716 1H187.708V0H189.716V1ZM193.731 1H191.723V0H193.731V1ZM197.746 1H195.738V0H197.746V1ZM201.761 1H199.754V0H201.761V1ZM205.776 1H203.769V0H205.776V1ZM209.791 1H207.784V0H209.791V1ZM213.807 1H211.799V0H213.807V1ZM217.822 1H215.814V0H217.822V1ZM221.837 1H219.829V0H221.837V1ZM225.852 1H223.844V0H225.852V1ZM229.867 1H227.86V0H229.867V1ZM233.882 1H231.875V0H233.882V1ZM237.897 1H235.89V0H237.897V1ZM241.912 1H239.905V0H241.912V1ZM245.928 1H243.92V0H245.928V1ZM249.943 1H247.935V0H249.943V1ZM253.958 1H251.95V0H253.958V1ZM257.973 1H255.965V0H257.973V1ZM261.988 1H259.981V0H261.988V1ZM265 1H263.996V0H265V1Z" fill="#C9C9C9"/>
</svg>
